<svg xmlns="http://www.w3.org/2000/svg" viewBox="0 0 512 512">
  <rect width="512" height="512" rx="96" fill="#2d7a4f"/>
  <path fill="#ffffff" d="M150 122h212c24 0 44 20 44 44v180c0 24-20 44-44 44H150c-24 0-44-20-44-44V166c0-24 20-44 44-44Zm0 48v52h212v-52H150Zm30 104a30 30 0 1 0 0 60 30 30 0 0 0 0-60Zm76 0a30 30 0 1 0 0 60 30 30 0 0 0 0-60Zm76 0a30 30 0 1 0 0 60 30 30 0 0 0 0-60Z"/>
  <path fill="#f5d76e" d="M336 72c35 23 52 50 52 82 0 24-12 44-30 56 4-35-11-58-42-89 12-15 18-31 20-49Z"/>
</svg>
